<?xml version="1.0" encoding="utf-8"?>
<!-- Generator: Adobe Illustrator 23.0.6, SVG Export Plug-In . SVG Version: 6.00 Build 0)  -->
<svg version="1.1" id="Layer_1" xmlns="http://www.w3.org/2000/svg" xmlns:xlink="http://www.w3.org/1999/xlink" x="0px" y="0px"
	 viewBox="0 0 283.46 56.69" style="enable-background:new 0 0 283.46 56.69;" xml:space="preserve">
<style type="text/css">
	.st0{fill:#FFFFFF;}
</style>
<path class="st0" d="M11.46,42.9v-7.36c0-0.58-0.11-0.97-0.33-1.17c-0.22-0.2-0.62-0.3-1.2-0.3H5.52c-3.74,0-5.61-1.82-5.61-5.45
	v-8.45c0-3.6,1.96-5.4,5.89-5.4h6c3.92,0,5.89,1.8,5.89,5.4v4.8h-6.32v-3.92c0-0.58-0.11-0.97-0.33-1.17c-0.22-0.2-0.62-0.3-1.2-0.3
	H7.75c-0.62,0-1.04,0.1-1.25,0.3c-0.22,0.2-0.33,0.59-0.33,1.17v6.92c0,0.58,0.11,0.97,0.33,1.17c0.22,0.2,0.64,0.3,1.25,0.3h4.31
	c3.81,0,5.72,1.78,5.72,5.34v8.99c0,3.6-1.98,5.4-5.94,5.4H5.96c-3.96,0-5.94-1.8-5.94-5.4v-4.74h6.27v3.87
	c0,0.58,0.11,0.97,0.33,1.17c0.22,0.2,0.64,0.3,1.25,0.3h2.07c0.58,0,0.98-0.1,1.2-0.3C11.35,43.87,11.46,43.48,11.46,42.9z"/>
<path class="st0" d="M32.55,27.2H28.9v15.53c0,0.58,0.11,0.97,0.33,1.17c0.22,0.2,0.64,0.3,1.25,0.3h2.02v4.96h-3.81
	c-3.96,0-5.94-1.8-5.94-5.4V27.2h-2.67v-4.8h2.67v-4.8h6.16v4.8h3.65V27.2z"/>
<path class="st0" d="M45.96,22.4h6.1v26.76h-6.21v-2.29c-0.54,1.53-1.8,2.29-3.76,2.29H40.4c-3.71,0-5.56-1.8-5.56-5.4V27.8
	c0-3.6,1.85-5.4,5.56-5.4h1.69c2.14,0,3.43,0.87,3.87,2.62V22.4z M42.52,44.37h1.63c1.13,0,1.69-0.6,1.69-1.8V29
	c0-1.2-0.56-1.8-1.69-1.8h-1.63c-0.58,0-0.98,0.1-1.2,0.3C41.11,27.7,41,28.09,41,28.67V42.9c0,0.58,0.11,0.97,0.33,1.17
	C41.54,44.27,41.94,44.37,42.52,44.37z"/>
<path class="st0" d="M65.25,22.29h0.98v5.34h-2.29c-2.29,0-3.43,1.31-3.43,3.92v17.6h-6.16V22.4h6.1v3.43
	c0.29-1.05,0.85-1.91,1.69-2.56C62.98,22.62,64.01,22.29,65.25,22.29z"/>
<path class="st0" d="M81,27.2h-3.65v15.53c0,0.58,0.11,0.97,0.33,1.17c0.22,0.2,0.64,0.3,1.25,0.3h2.02v4.96h-3.81
	c-3.96,0-5.94-1.8-5.94-5.4V27.2h-2.67v-4.8h2.67v-4.8h6.16v4.8H81V27.2z"/>
<path class="st0" d="M94.3,22.4h6.21v26.76h-6.1v-2.67c-0.44,1.78-1.73,2.67-3.87,2.67h-1.69c-3.71,0-5.56-1.8-5.56-5.4V22.4h6.16
	V42.9c0,0.58,0.11,0.97,0.33,1.17c0.22,0.2,0.62,0.3,1.2,0.3h1.63c1.13,0,1.69-0.6,1.69-1.8V22.4z"/>
<path class="st0" d="M112.77,22.4h1.63c3.74,0,5.61,1.8,5.61,5.4v15.97c0,3.6-1.87,5.4-5.61,5.4h-1.63c-2,0-3.27-0.76-3.82-2.29v9.7
	h-6.16V22.4h6.1v2.45C109.41,23.22,110.7,22.4,112.77,22.4z M113.81,42.9V28.67c0-0.58-0.11-0.97-0.33-1.17
	c-0.22-0.2-0.62-0.3-1.2-0.3h-1.63c-1.13,0-1.69,0.6-1.69,1.8v13.57c0,1.2,0.56,1.8,1.69,1.8h1.63c0.58,0,0.98-0.1,1.2-0.3
	C113.7,43.87,113.81,43.48,113.81,42.9z"/>
<path class="st0" d="M132.19,22.34h1.63c3.74,0,5.61,1.8,5.61,5.4v16.02c0,3.6-1.87,5.4-5.61,5.4h-1.63c-2.07,0-3.36-0.82-3.87-2.45
	v2.45h-6.1V12.69h6.16v11.94C128.92,23.1,130.2,22.34,132.19,22.34z M133.23,42.89V28.61c0-0.58-0.11-0.97-0.33-1.17
	c-0.22-0.2-0.62-0.3-1.2-0.3h-1.63c-1.13,0-1.69,0.62-1.69,1.85v13.57c0,1.2,0.56,1.8,1.69,1.8h1.63c0.58,0,0.98-0.1,1.2-0.3
	C133.12,43.86,133.23,43.47,133.23,42.89z"/>
<path class="st0" d="M147.56,22.4h6.16c3.85,0,5.78,1.8,5.78,5.4v15.97c0,3.6-1.93,5.4-5.78,5.4h-6.16c-3.89,0-5.83-1.8-5.83-5.4
	V27.8C141.73,24.2,143.67,22.4,147.56,22.4z M153.45,43.06V28.51c0-0.58-0.11-0.97-0.33-1.17c-0.22-0.2-0.64-0.3-1.25-0.3h-2.51
	c-0.62,0-1.04,0.1-1.25,0.3c-0.22,0.2-0.33,0.59-0.33,1.17v14.55c0,0.58,0.11,0.97,0.33,1.17c0.22,0.2,0.64,0.3,1.25,0.3h2.51
	c0.62,0,1.04-0.1,1.25-0.3C153.34,44.03,153.45,43.64,153.45,43.06z"/>
<path class="st0" d="M167.62,22.4h6.16c3.85,0,5.78,1.8,5.78,5.4v15.97c0,3.6-1.93,5.4-5.78,5.4h-6.16c-3.89,0-5.83-1.8-5.83-5.4
	V27.8C161.79,24.2,163.73,22.4,167.62,22.4z M173.5,43.06V28.51c0-0.58-0.11-0.97-0.33-1.17c-0.22-0.2-0.64-0.3-1.25-0.3h-2.51
	c-0.62,0-1.04,0.1-1.25,0.3c-0.22,0.2-0.33,0.59-0.33,1.17v14.55c0,0.58,0.11,0.97,0.33,1.17c0.22,0.2,0.64,0.3,1.25,0.3h2.51
	c0.62,0,1.04-0.1,1.25-0.3C173.39,44.03,173.5,43.64,173.5,43.06z"/>
<path class="st0" d="M194.32,27.19h-3.65v15.53c0,0.58,0.11,0.97,0.33,1.17c0.22,0.2,0.64,0.3,1.25,0.3h2.02v4.96h-3.82
	c-3.96,0-5.94-1.8-5.94-5.4V27.19h-2.67v-4.8h2.67v-4.8h6.16v4.8h3.65V27.19z"/>
<path class="st0" d="M213.83,31.4h-6.05v-2.72c0-0.58-0.11-0.97-0.33-1.17c-0.22-0.2-0.62-0.3-1.2-0.3h-1.96
	c-0.58,0-0.98,0.1-1.2,0.3c-0.22,0.2-0.33,0.59-0.33,1.17V42.9c0,0.58,0.11,0.97,0.33,1.17c0.22,0.2,0.62,0.3,1.2,0.3h1.96
	c0.58,0,0.98-0.1,1.2-0.3c0.22-0.2,0.33-0.59,0.33-1.17v-2.78h6.05v3.65c0,3.6-1.98,5.4-5.94,5.4h-5.34c-3.96,0-5.94-1.8-5.94-5.4
	V27.8c0-3.6,1.98-5.4,5.94-5.4h5.34c3.96,0,5.94,1.8,5.94,5.4V31.4z"/>
<path class="st0" d="M227.24,22.4h6.1v26.76h-6.21v-2.29c-0.55,1.53-1.8,2.29-3.76,2.29h-1.69c-3.71,0-5.56-1.8-5.56-5.4V27.8
	c0-3.6,1.85-5.4,5.56-5.4h1.69c2.14,0,3.43,0.87,3.87,2.62V22.4z M223.8,44.37h1.64c1.13,0,1.69-0.6,1.69-1.8V29
	c0-1.2-0.56-1.8-1.69-1.8h-1.64c-0.58,0-0.98,0.1-1.2,0.3c-0.22,0.2-0.33,0.59-0.33,1.17V42.9c0,0.58,0.11,0.97,0.33,1.17
	C222.82,44.27,223.22,44.37,223.8,44.37z"/>
<path class="st0" d="M256.61,22.4h1.69c3.71,0,5.56,1.8,5.56,5.4v21.36h-6.16V28.67c0-0.58-0.11-0.97-0.33-1.17
	c-0.22-0.2-0.62-0.3-1.2-0.3h-1.63c-1.13,0-1.69,0.6-1.69,1.8v20.16h-6.21V28.67c0-0.58-0.11-0.97-0.33-1.17
	c-0.22-0.2-0.62-0.3-1.2-0.3h-1.63c-1.13,0-1.69,0.6-1.69,1.8v20.16h-6.16V22.4h6.1v2.45c0.51-1.64,1.8-2.45,3.87-2.45h1.64
	c2.69,0,4.4,0.91,5.12,2.72C252.87,23.31,254.29,22.4,256.61,22.4z"/>
<path class="st0" d="M276.12,22.4h1.64c3.74,0,5.61,1.8,5.61,5.4v15.97c0,3.6-1.87,5.4-5.61,5.4h-1.64c-2,0-3.27-0.76-3.81-2.29v9.7
	h-6.16V22.4h6.1v2.45C272.76,23.22,274.05,22.4,276.12,22.4z M277.16,42.9V28.67c0-0.58-0.11-0.97-0.33-1.17
	c-0.22-0.2-0.62-0.3-1.2-0.3H274c-1.13,0-1.69,0.6-1.69,1.8v13.57c0,1.2,0.56,1.8,1.69,1.8h1.63c0.58,0,0.98-0.1,1.2-0.3
	C277.05,43.87,277.16,43.48,277.16,42.9z"/>
<g>
	<polygon class="st0" points="101.66,1.12 83.29,20.11 87.76,20.11 101.66,5.68 115.55,20.11 120.02,20.11 	"/>
	<g>
		<polygon class="st0" points="96.59,20.12 101.66,14.81 106.73,20.12 111.17,20.12 101.66,10.25 92.15,20.12 		"/>
	</g>
</g>
</svg>
